<svg fill="#ffffff" version="1.1" id="Layer_1" xmlns="http://www.w3.org/2000/svg" xmlns:xlink="http://www.w3.org/1999/xlink" viewBox="-51.2 -51.2 614.40 614.40" xml:space="preserve" width="171px" height="171px" data-darkreader-inline-fill="" style="--darkreader-inline-fill: #181a1b; --darkreader-inline-stroke: #e8e6e3;" stroke="#ffffff" data-darkreader-inline-stroke=""><g id="SVGRepo_bgCarrier" stroke-width="0" transform="translate(0,0), scale(1)"><rect x="-51.2" y="-51.2" width="614.40" height="614.40" rx="49.152" fill="#000000" strokewidth="0" data-darkreader-inline-fill="" style="--darkreader-inline-fill: #000000;"></rect></g><g id="SVGRepo_tracerCarrier" stroke-linecap="round" stroke-linejoin="round" stroke="#CCCCCC" stroke-width="10.24" data-darkreader-inline-stroke="" style="--darkreader-inline-stroke: #c8c3bc;"> <g> <g> <rect x="33.391" y="100.174" width="33.391" height="311.652"></rect> </g> </g> <g> <g> <polygon points="33.391,478.609 33.391,411.826 0,411.826 0,512 445.217,512 445.217,478.609 "></polygon> </g> </g> <g> <g> <polygon points="0,0 0,100.174 33.391,100.174 33.391,33.391 411.826,33.391 411.826,0 "></polygon> </g> </g> <g> <g> <rect x="411.826" y="33.391" width="33.391" height="33.391"></rect> </g> </g> <g> <g> <rect x="445.217" y="66.783" width="33.391" height="133.565"></rect> </g> </g> <g> <g> <rect x="478.609" y="300.522" width="33.391" height="144.696"></rect> </g> </g> <g> <g> <rect x="445.217" y="445.217" width="33.391" height="33.391"></rect> </g> </g> <g> <g> <polygon points="345.043,122.435 345.043,155.826 166.957,155.826 166.957,122.435 345.043,122.435 345.043,89.044 133.565,89.044 133.565,189.217 378.435,189.217 378.435,122.435 "></polygon> </g> </g> <g> <g> <polygon points="345.043,333.913 345.043,378.435 166.957,378.435 166.957,333.913 345.043,333.913 345.043,300.522 133.565,300.522 133.565,411.826 378.435,411.826 378.435,333.913 "></polygon> </g> </g> <g> <g> <polygon points="411.826,200.348 411.826,233.739 378.435,233.739 378.435,267.13 445.217,267.13 445.217,200.348 "></polygon> </g> </g> <g> <g> <rect x="445.217" y="267.13" width="33.391" height="33.391"></rect> </g> </g> </g><g id="SVGRepo_iconCarrier"> <g> <g> <rect x="33.391" y="100.174" width="33.391" height="311.652"></rect> </g> </g> <g> <g> <polygon points="33.391,478.609 33.391,411.826 0,411.826 0,512 445.217,512 445.217,478.609 "></polygon> </g> </g> <g> <g> <polygon points="0,0 0,100.174 33.391,100.174 33.391,33.391 411.826,33.391 411.826,0 "></polygon> </g> </g> <g> <g> <rect x="411.826" y="33.391" width="33.391" height="33.391"></rect> </g> </g> <g> <g> <rect x="445.217" y="66.783" width="33.391" height="133.565"></rect> </g> </g> <g> <g> <rect x="478.609" y="300.522" width="33.391" height="144.696"></rect> </g> </g> <g> <g> <rect x="445.217" y="445.217" width="33.391" height="33.391"></rect> </g> </g> <g> <g> <polygon points="345.043,122.435 345.043,155.826 166.957,155.826 166.957,122.435 345.043,122.435 345.043,89.044 133.565,89.044 133.565,189.217 378.435,189.217 378.435,122.435 "></polygon> </g> </g> <g> <g> <polygon points="345.043,333.913 345.043,378.435 166.957,378.435 166.957,333.913 345.043,333.913 345.043,300.522 133.565,300.522 133.565,411.826 378.435,411.826 378.435,333.913 "></polygon> </g> </g> <g> <g> <polygon points="411.826,200.348 411.826,233.739 378.435,233.739 378.435,267.13 445.217,267.13 445.217,200.348 "></polygon> </g> </g> <g> <g> <rect x="445.217" y="267.13" width="33.391" height="33.391"></rect> </g> </g> </g></svg>